<?xml version="1.0" encoding="UTF-8"?>
<!-- Created with Grafika (https://www.grafika.cc/) -->
<svg xmlns="http://www.w3.org/2000/svg" xmlns:svg="http://www.w3.org/2000/svg" xmlns:xlink="http://www.w3.org/1999/xlink" width="512" height="590.88" viewBox="0 0 959.34 1107.35" preserveAspectRatio="xMidYMid meet">
	<g transform="matrix(0.852821946144104, 0, 0, 0.852821946144104, 481.41802978515625, 600.34375)">
		<path transform="matrix(1, 0, 0, 1, -0.000034332275390625, 0)" d="M403.5,212 C403.5,286.1 403.4,285.3 408.8,288.8 C410.9,290.1 413.7,290.5 422.3,290.5 C428.3,290.5 433.4,290.2 433.8,289.9 C434.1,289.6 434.1,288.7 433.8,287.9 C433.4,286.8 430.9,286.5 423,286.5 C414.4,286.5 412.3,286.2 410.4,284.6 L408,282.7 L407.7,213.1 C407.5,144.5 407.4,143.5 405.5,143.5 C403.5,143.5 403.5,144.4 403.5,212M521.5,213.5 L521.5,283.7 L524.9,287.1 L528.4,290.6 L539.7,290.3 C548.9,290.1 551,289.7 551,288.5 C551,287.3 549,286.9 540.4,286.7 C523.8,286.3 525.6,294.8 525.3,213 C525,148.2 524.9,144 523.3,143.7 C521.6,143.4 521.5,147.2 521.5,213.5M-324.9,145.4 C-325.2,145.8 -318.7,171.6 -310.4,202.6 C-290.4,277.9 -291.2,275.2 -288.7,272.2 C-287.8,271.1 -298.3,230.3 -320.4,148.7 C-321.5,144.8 -323.6,143.2 -324.9,145.4M-142,145.7 C-142.3,146.4 -142.4,181.4 -142.3,223.5 C-142,290.7 -141.8,300 -140.5,300 C-139.2,300 -139,290.6 -138.7,222.2 C-138.5,152.9 -138.7,144.5 -140,144.5 C-140.9,144.5 -141.8,145.1 -142,145.7M303.5,145.8 C303.5,148.9 336.7,271.1 337.9,272.3 C338.9,273.4 339.4,273.4 340.2,272.3 C340.9,271.4 337.6,257.5 328.6,224 C321.6,198.1 314,169.7 311.6,160.7 C307.9,147.1 306.9,144.5 305.4,144.5 C304.3,144.5 303.5,145.1 303.5,145.8M-464.5,155.1 C-469.6,157.3 -473.1,161.1 -475.4,166.9 C-477.7,172.6 -496.5,236.2 -496.5,238.2 C-496.5,238.9 -495.7,239.5 -494.7,239.5 C-493.2,239.5 -491.6,234.9 -485.1,212.7 C-471.8,167.5 -471,165.1 -467,161.6 C-462.5,157.7 -459.7,157.2 -441.4,157.7 C-424.4,158.1 -421.4,158.9 -418.7,163.9 C-417.2,166.7 -417,175.2 -416.5,256 C-416.1,334.2 -415.8,345 -414.5,345 C-413.2,345 -413,334.4 -412.7,256.5 C-412.4,156.7 -412.1,161.8 -419.8,156.7 C-423.8,154 -424.1,154 -442.4,153.7 C-457.5,153.5 -461.7,153.8 -464.5,155.1M163.9,155.4 C159.1,157.6 154.3,163.1 152.6,168.3 C148.3,181.8 132.5,236.5 132.5,237.9 C132.5,239 133.1,239.5 134.2,239.3 C136.1,238.9 135.5,240.6 147.5,200 C152.5,182.9 157.6,167.3 158.8,165.3 C160.1,162.9 162.4,160.7 165.2,159.4 C169.1,157.5 170.9,157.4 186.3,157.7 C204.5,158 206.5,158.6 210.2,164.2 C211.9,166.7 212,173.1 212.5,256 C212.9,334.2 213.2,345 214.5,345 C215.8,345 216,334.5 216.3,257.5 C216.5,194.5 216.2,168.8 215.4,165.8 C214.1,160.9 209.2,155.8 204.4,154.5 C202.6,153.9 193.6,153.5 184.5,153.5 C170.6,153.5 167.4,153.8 163.9,155.4M-27,156 C-51.2,160.5 -72,177.9 -77.9,198.5 C-80.2,206.6 -79.8,279 -77.5,279 C-76.2,279 -75.9,273.8 -75.5,240 C-75,206.1 -74.7,200.4 -73.2,196.5 C-65.1,175.9 -40.2,159.5 -16.8,159.5 C-11.8,159.5 -10.5,159.2 -10.5,158 C-10.5,155.1 -17.7,154.3 -27,156M-560.7,173.4 L-564,176.3 L-564.3,245 L-564.5,313.6 L-561.8,316.4 C-557.9,320.2 -552,321.3 -548.6,318.7 C-543.6,315 -543.5,314.3 -543.5,278.7 L-543.5,245.4 L-541.1,243 C-539.6,241.5 -538,240.8 -537.1,241.1 C-535.3,241.8 -534.6,244.1 -522,287 C-515.3,309.7 -513,316.5 -511,318.5 C-508.6,320.8 -507.7,321 -497.7,321.3 C-487.8,321.6 -486.7,321.5 -483.5,319.3 C-479.6,316.7 -481.3,321.4 -465.9,269.2 C-462.2,256.6 -458.5,245.7 -457.8,244.9 C-455.9,243 -451.9,243.1 -451.1,245.1 C-450.8,246 -450.5,287.7 -450.5,337.9 C-450.5,438.9 -450.9,432.5 -444,434.4 C-440.7,435.3 -435.5,434.5 -432.9,432.7 C-429.5,430.5 -429.5,428.7 -429.5,302.5 L-429.5,177.3 L-432.9,173.9 C-436.3,170.5 -436.4,170.5 -445.5,170.5 C-454.2,170.5 -454.8,170.6 -457.5,173.3 C-460.6,176.5 -460.1,174.8 -477.4,234 C-484,256.5 -490.1,276.4 -490.9,278.1 C-492.6,281.8 -495.1,282.7 -499.2,281 C-502.7,279.5 -501.6,282.9 -520,219.5 C-535.1,167.4 -533.4,170.5 -548,170.5 C-557,170.5 -557.6,170.6 -560.7,173.4M-353.6,172.2 C-355,173.1 -356.7,174.6 -357.3,175.5 C-357.9,176.5 -365.2,202.2 -373.5,232.7 C-381.9,263.1 -390,292.7 -391.6,298.5 C-393.2,304.3 -394.5,310.2 -394.5,311.6 C-394.5,318.5 -380.4,322.9 -375.8,317.4 C-375.2,316.6 -373.5,311.5 -372.1,306.1 C-370.6,300.7 -368.9,295.1 -368.2,293.6 C-365.9,288.8 -363.7,288.4 -343.5,289 C-333.3,289.4 -324.2,289.9 -323.2,290.2 C-320.7,290.9 -318.1,296.6 -315.5,307.2 C-314.3,312.2 -312.8,317.1 -312.1,318 C-309.3,321.9 -295.1,318.8 -293.5,314 C-293,312.8 -295,303.7 -298.6,290.5 C-301.8,278.7 -309.9,248.3 -316.7,223 C-328.1,180.2 -329.1,176.8 -332.1,173.7 C-335.2,170.6 -335.6,170.5 -343.1,170.5 C-348.6,170.5 -351.8,171 -353.6,172.2M-340.1,218.7 C-337.2,223.4 -328.3,258.3 -328.7,263.4 L-329,267 L-342.3,267.3 C-356.5,267.6 -359.5,266.9 -359.5,263.2 C-359.5,260.9 -350.2,226 -348.4,221.4 C-347.5,219.1 -344.6,216.8 -342.3,216.6 C-341.9,216.5 -340.9,217.5 -340.1,218.7M-225.4,171.6 C-232.4,173 -243.9,178.9 -248.5,183.5 C-250.8,185.8 -253.9,190.2 -255.4,193.4 L-258,199 L-258.3,240.8 C-258.7,288 -258.2,294 -253.2,302.4 C-246.2,314.1 -234.5,320.1 -216.5,321.1 C-195.1,322.4 -178.3,314.9 -171.5,301 C-169.1,296.2 -169,295.2 -168.7,270.8 C-168.2,234.7 -167.2,236 -195.6,236 C-217.1,236 -217.4,236.1 -218.2,243.8 C-219.4,253.9 -217.1,256.5 -206.9,256.5 C-202.8,256.5 -197.9,257.1 -196.1,257.9 C-190.1,260.4 -189.5,262.3 -189.5,277.8 L-189.5,291.7 L-192.3,294.5 C-196.2,298.4 -202.3,299.9 -213.5,300 C-221.7,300 -223.7,299.7 -227.9,297.5 C-237.4,292.7 -237,295.3 -237.3,247 C-237.7,197.2 -238,199.4 -228.4,194.6 C-222.9,191.8 -221.2,191.5 -213.6,191.5 C-207.4,191.5 -203.9,192.1 -201,193.4 C-195.8,195.7 -190.8,200 -189.9,202.8 C-188.1,208.8 -181.2,210.4 -174.5,206.4 C-168.3,202.6 -168,200 -172.7,191.3 C-177.6,182 -187,175.2 -199,172 C-205.4,170.4 -218.2,170.2 -225.4,171.6M-25.2,171.6 C-35.8,173.4 -43.5,177.3 -51.1,184.9 C-62.7,196.5 -62.4,195.1 -62.5,245.7 C-62.6,291.4 -62.4,292.9 -57.1,301.3 C-52.9,307.9 -47.6,312.7 -40.5,316.1 C-32.5,320 -25.7,321.5 -15.6,321.5 C-2,321.5 8.2,317.1 17,307.3 C22.4,301.3 22.8,298.1 18.8,294.3 C11.8,287.9 7.9,287.9 1,294.4 C-5.1,300.1 -7.9,301 -19.5,300.3 C-26,299.9 -28.2,299.3 -32.1,296.9 C-38,293.3 -40.5,289.9 -41.6,284.4 C-42.8,277.8 -42.7,211.8 -41.4,207 C-40,201.8 -35.5,197.2 -29.1,194.3 C-25.1,192.5 -22.2,192 -15.5,192 C-5.6,192 -2.9,193.2 2.3,200 C7.4,206.6 12.3,206.9 19.3,201 C21.8,198.9 22.5,197.5 22.5,194.8 C22.5,191.8 21.5,190.3 15.3,184.1 C7.2,176.1 1.7,173.1 -7.7,171.5 C-14.9,170.4 -17.9,170.4 -25.2,171.6M69.6,171.9 C64.5,174.7 64.6,173.1 64.5,246.2 L64.5,314.3 L67.4,316.8 C71.4,320.2 76.9,321.1 80.2,319 C85.2,315.7 85.5,313.2 85.5,277.6 L85.5,244.6 L88.1,242.6 C91.1,240.2 92.6,240.9 94.3,245.3 C94.9,246.8 99.7,262.8 105,281 C110.2,299.1 115.4,315.1 116.4,316.5 C119.3,320.5 122.3,321.5 132.5,321.5 C143.3,321.5 147.3,319.9 149.3,314.9 C149.9,313.3 154.7,297.2 160,279.1 C165.3,260.9 170.1,245.5 170.7,244.8 C172,243.2 175.7,243.1 177.3,244.7 C178.2,245.6 178.5,267.7 178.5,338 C178.5,426.6 178.6,430.3 180.4,431.9 C185.1,436.2 193.7,435.6 197.5,430.8 C199.5,428.2 199.5,427.6 199.5,303.6 C199.5,180.8 199.5,179 197.5,175.7 C194.9,171.5 192.1,170.5 182.5,170.5 C169.3,170.5 170.9,167.3 153.9,225.5 C145.9,252.7 139,276 138.5,277.2 C135.9,283.4 128.6,283.4 126,277.2 C125.3,275.4 118.2,251.9 110.4,225 C98.3,183.7 95.6,175.6 93.4,173.2 C90.8,170.6 90.2,170.5 81.3,170.5 C75.5,170.6 71.1,171.1 69.6,171.9M274.9,172.3 C273.2,173.4 271.3,175.6 270.7,177.1 C269.8,179.4 253,240.2 236.6,301 C235,306.7 234.1,312.1 234.5,313.5 C235.7,318.5 248.4,322 252.1,318.3 C253,317.5 255,312.1 256.6,306.4 C258.2,300.7 260,294.8 260.6,293.3 C262.4,288.9 265.9,288.3 286.8,289.1 L305.6,289.8 L307.9,292.6 C309.4,294.3 311.2,299.3 313,306.4 C314.5,312.5 316.4,318 317.1,318.6 C321,321.9 334,318.4 335.1,313.8 C335.5,312.3 334.1,305.2 331.5,295.7 C329.2,287.1 321,256.6 313.4,228 C301.7,184.5 299,175.6 297,173.5 C294.8,171.3 293.5,171 286.2,170.7 C279.5,170.5 277.4,170.7 274.9,172.3M287.8,217.7 C289.4,218.9 296.8,243.7 299.7,257.7 C301.6,266.7 301.3,266.9 286.1,267.3 C272,267.6 269.5,266.9 269.5,262.7 C269.5,261.2 272,251 275,240 C279,225.1 281,219.6 282.6,218.2 C285.1,216.2 285.6,216.1 287.8,217.7M377,172.6 C371.9,175.2 372,173.3 371.7,244 C371.5,290.5 371.7,311.1 372.5,313.8 C373.2,316.3 374.7,318.3 376.8,319.5 C379.8,321.4 382,321.5 409.2,321.5 C441.6,321.5 440.6,321.7 442.5,314.6 C443.8,309.5 442.8,304.9 439.7,302.5 C437.5,300.7 435.6,300.5 419.6,300.5 C400.1,300.5 398.3,300 395.1,294.5 C393.1,291.1 393,289.2 392.5,233.3 C392,181 391.8,175.4 390.3,173.9 C388.3,171.9 379.9,171.1 377,172.6M494.5,172.7 C489.5,175.4 489.5,174.3 489.5,246.9 L489.5,314.7 L492.9,318.1 L496.3,321.5 L526.2,321.5 C561,321.5 559.6,321.9 560.3,311.7 C560.6,307.1 560.3,305.5 558.7,303.5 C556.7,301 556.5,301 537.2,300.5 C519.5,300 517.5,299.8 515.5,298 C511,293.9 511,294.6 510.5,234.3 C510,177 510,176.5 507.9,174.4 C505.2,171.8 498,170.9 494.5,172.7M-122.7,175.1 C-124.2,175.9 -125.7,177.6 -126,178.8 C-126.3,180 -126.7,210.8 -126.8,247.2 L-127,313.4 L-124.8,315.6 C-121.5,318.9 -112.9,319.4 -109.2,316.5 L-106.5,314.4 L-106.5,177.6 L-109.1,175.6 C-112.3,173.1 -118.7,172.9 -122.7,175.1M-271.8,197.1 C-272.2,197.5 -272.5,219.1 -272.5,245 C-272.5,285.4 -272.3,292.9 -270.9,297.6 C-268.4,305.9 -264.8,312.3 -259.3,318.1 C-248.6,329.4 -236.2,334.6 -219.5,334.9 C-210.3,335 -209,334.8 -208.7,333.2 C-208.4,331.7 -209.2,331.5 -215.7,331.5 C-239.4,331.4 -258.3,319.4 -266.2,299.5 C-267.8,295.5 -268,289.7 -268.5,246.1 C-269,199.2 -269.3,194.6 -271.8,197.1M-256.7,457.7 C-266.9,459 -272.3,463.3 -277.5,474 C-279.8,478.7 -280.2,547.1 -278,555.8 C-274.5,569.6 -267.7,575.5 -255.3,575.5 C-247.6,575.5 -244,574.1 -238.6,569.1 C-236.8,567.4 -235.1,566.4 -234.9,567 C-234.7,567.5 -233.7,569.6 -232.7,571.5 C-231.2,574.6 -230.6,575 -227,575 L-223,575 L-223,507 L-250,507 L-250.3,517.2 L-250.6,527.5 L-244.3,527.5 L-244.7,539.6 C-245,550.3 -245.2,551.8 -247,553.1 C-249.9,555.2 -253.7,554.5 -255.2,551.5 C-256.1,549.6 -256.5,540.5 -256.5,515.7 C-256.5,483.8 -256.4,482.4 -254.5,480.5 C-252.1,478.1 -248.2,477.9 -246.4,480.1 C-245.6,481 -244.8,485.3 -244.5,489.9 L-244,498 L-233.6,498.3 C-227.9,498.4 -222.8,498.2 -222.3,497.7 C-221.2,496.6 -223.1,479 -225,473.4 C-227,467.7 -231.4,462.2 -235.9,460.1 C-240.6,457.9 -249.9,456.8 -256.7,457.7M35,459.3 C26.6,463.3 22.1,470.1 20.6,481.2 C18.6,495.9 21.6,502.4 38.2,519.6 C45,526.7 51.2,534 52,535.9 C52.8,537.9 53.5,542.4 53.5,545.9 C53.5,551.5 53.2,552.6 51.4,553.5 C45.5,556.7 42.7,552.1 42.6,539.2 L42.5,531.4 L31.3,531.7 L20,532 L20.2,541.9 C20.5,559.4 24.2,568.2 33.1,572.6 C37.4,574.7 39.4,575 49.5,575 C60.3,575 61.3,574.8 65.1,572.3 C72.6,567.5 76.5,557.4 76.7,542.8 C76.8,526.3 72.5,517.9 55.7,502.7 C50.7,498.1 45.7,492.9 44.5,491.1 C41.9,486.8 41.8,480.9 44.4,479.5 C49.4,476.9 52.5,479.6 52.5,486.6 L52.5,491.5 L76.8,491.5 L76.1,485.5 C74.6,472.4 70.6,464.7 63,460.4 C57.3,457.1 40.9,456.5 35,459.3M84.7,516.2 L85,575 L108,575 L108.5,535.9 C109,499.2 109.1,496.6 110.9,494.6 Q114.5,490.55 118.1,494.6 C119.9,496.6 120,499.2 120.5,535.9 L121,575 L143,575 L143.3,533.6 C143.4,506.7 143.2,490.9 142.5,488.3 C140.3,480.3 132.5,474.5 124,474.5 C119.6,474.6 112.7,478 111.4,480.9 C109.8,484.3 108.3,483.1 108.5,478.6 C108.6,476.6 108.7,471.1 108.6,466.2 L108.5,457.5 L84.5,457.5 L84.7,516.2 L84.7,516.2 L84.7,516.2 ZM-195.2,475.5 C-207.2,478 -213.5,486.4 -213.5,499.7 L-213.5,504.5 L-190.5,504.5 L-190.5,500.1 C-190.5,495.1 -188.4,492.2 -185.2,492.7 C-182,493.2 -180.5,497.2 -180.7,504.4 L-181,510.7 L-191.8,514.5 C-197.7,516.6 -204.2,519.5 -206.1,521 C-213.4,526.6 -216.9,540.6 -214.6,555.5 C-212.4,569.9 -207.4,575.4 -196.1,575.7 C-189.8,575.9 -186.6,574.2 -182.8,568.6 L-180.6,565.4 L-180.3,570.2 L-180,575 L-157,575 L-156.7,536.5 C-156.6,512.2 -156.9,496.1 -157.5,492.9 C-158.9,486.5 -163.7,480.6 -170.2,477.5 C-175.6,475 -188,474 -195.2,475.5M-180.7,538.5 C-180.9,551.7 -181.3,554.7 -182.7,556.1 C-185.1,558.5 -189.3,557.2 -190.2,553.7 C-191.5,549.2 -191.1,533.3 -189.6,529.8 C-188.4,526.9 -183.4,522.6 -181.2,522.5 C-180.7,522.5 -180.5,529.7 -180.7,538.5M-115.3,475.6 C-117.3,476.2 -119.7,478.1 -121.5,480.7 L-124.5,484.8 L-124.5,475.5 L-147.5,475.5 L-147.3,525.2 L-147,575 L-125,575 L-124.5,536.5 C-124.2,515.3 -123.6,497.2 -123.1,496.2 C-122.3,494.5 -119.4,492.5 -117.8,492.5 C-114.1,492.6 -114,493.2 -113.5,534.7 L-113,575 L-90,575 L-89.5,535.9 C-89,499.2 -88.9,496.6 -87.1,494.6 C-85,492.3 -81.1,491.8 -79.8,493.7 C-79.4,494.4 -78.8,513 -78.5,535 L-78,575 L-55,575 L-54.2,544 C-53.8,526.9 -53.7,508.1 -54.1,502.1 C-55.1,482.6 -59.5,475.9 -72.3,474.8 C-79.8,474.1 -84.6,475.7 -88.5,480.1 L-91.5,483.6 L-94.5,480.2 C-98.9,475.2 -107.3,473.3 -115.3,475.6M-24.8,475.6 C-33.7,477.7 -41,483.7 -43.6,491.2 C-44.7,494.1 -45,502.2 -45,524.5 C-45,553 -44.9,554.2 -42.7,559.8 C-38,571.5 -31.3,575.6 -17,575.6 C-2.1,575.6 4.2,572.6 8.9,563.2 C11.9,557.3 14.5,541.6 13.2,538.1 C12.7,536.8 10.8,536.5 1,536.5 L-10.5,536.5 L-10.5,545.3 C-10.5,555.1 -12,558 -16.6,557.3 C-20.5,556.8 -21.5,553.1 -21.5,539.8 L-21.5,527.5 L-4.2,527.3 L13,527 L12.9,510.5 C12.9,495.4 12.7,493.6 10.5,488.6 C5.6,477.5 -9.4,472 -24.8,475.6M-12.1,494.7 C-10.9,496.3 -10.5,499.4 -10.5,506.2 L-10.5,515.5 L-21.7,515.5 L-21.3,505.7 C-21,495 -19.9,492.5 -15.9,492.5 C-14.7,492.5 -12.9,493.5 -12.1,494.7M172.3,475.9 C169.7,476.6 166.8,477.8 165.8,478.5 C160.9,482.2 158.1,485.4 155.7,490 L153,495 L152.7,522.2 C152.5,539.7 152.8,551.4 153.5,554.9 C155.9,566.7 163.9,574 175.7,575.3 C191.8,577.1 203.3,572.6 208.5,562.4 C211.2,557.2 212.5,544.7 212.5,525 C212.4,503.5 211.3,494.8 207.8,488.4 C201.7,477.1 187,471.9 172.3,475.9M185.5,494.5 C187.4,496.4 187.5,497.8 187.5,525.4 C187.5,557.1 187.3,558 181.6,557.3 C176.9,556.8 176.5,554.3 176.5,524.9 C176.5,499 176.6,497.7 178.6,495.1 C181.1,492 182.8,491.8 185.5,494.5M252.1,476 C250,476.7 247.8,477.8 247.2,478.4 C245.5,480.1 244.5,479.7 244.5,477.5 C244.5,475.5 244,475.4 232.8,475.7 L221,476 L220.7,535.2 L220.5,594.5 L244.5,594.5 L244.7,584.7 C244.7,579.4 244.9,574.5 245,574 C245.2,573.4 245.3,572.7 245.4,572.3 C245.4,571.9 247,572.4 248.8,573.5 C253.6,576.5 265,576.3 269.6,573.2 C274.1,570.2 277.1,565.5 278.4,559.4 C279.1,556.5 279.5,542.2 279.5,525 C279.5,494.1 278.9,487.9 275.2,482.3 C270.7,475.6 260.8,472.9 252.1,476M254.5,495.4 C255.1,496.6 255.5,507.9 255.5,525.2 C255.5,548.8 255.3,553.4 253.9,555.3 C252,558.1 249.4,558.1 246.9,555.4 C245.1,553.4 245,551.4 245,525.6 C245,495.2 245.3,493.5 250.5,493.5 C252.4,493.5 253.8,494.2 254.5,495.4" style="fill:#C3A7FF;" />
		<path transform="matrix(1, 0, 0, 1, -0.000034332275390625, 0)" d="M403.5,212 C403.5,286.1 403.4,285.3 408.8,288.8 C410.9,290.1 413.7,290.5 422.3,290.5 C428.3,290.5 433.4,290.2 433.8,289.9 C434.1,289.6 434.1,288.7 433.8,287.9 C433.4,286.8 430.9,286.5 423,286.5 C414.4,286.5 412.3,286.2 410.4,284.6 L408,282.7 L407.7,213.1 C407.5,144.5 407.4,143.5 405.5,143.5 C403.5,143.5 403.5,144.4 403.5,212M521.5,213.5 L521.5,283.7 L524.9,287.1 L528.4,290.6 L539.7,290.3 C548.9,290.1 551,289.7 551,288.5 C551,287.3 549,286.9 540.4,286.7 C523.8,286.3 525.6,294.8 525.3,213 C525,148.2 524.9,144 523.3,143.7 C521.6,143.4 521.5,147.2 521.5,213.5M-324.9,145.4 C-325.2,145.8 -318.7,171.6 -310.4,202.6 C-290.4,277.9 -291.2,275.2 -288.7,272.2 C-287.8,271.1 -298.3,230.3 -320.4,148.7 C-321.5,144.8 -323.6,143.2 -324.9,145.4M-142,145.7 C-142.3,146.4 -142.4,181.4 -142.3,223.5 C-142,290.7 -141.8,300 -140.5,300 C-139.2,300 -139,290.6 -138.7,222.2 C-138.5,152.9 -138.7,144.5 -140,144.5 C-140.9,144.5 -141.8,145.1 -142,145.7M303.5,145.8 C303.5,148.9 336.7,271.1 337.9,272.3 C338.9,273.4 339.4,273.4 340.2,272.3 C340.9,271.4 337.6,257.5 328.6,224 C321.6,198.1 314,169.7 311.6,160.7 C307.9,147.1 306.9,144.5 305.4,144.5 C304.3,144.5 303.5,145.1 303.5,145.8M-464.5,155.1 C-469.6,157.3 -473.1,161.1 -475.4,166.9 C-477.7,172.6 -496.5,236.2 -496.5,238.2 C-496.5,238.9 -495.7,239.5 -494.7,239.5 C-493.2,239.5 -491.6,234.9 -485.1,212.7 C-471.8,167.5 -471,165.1 -467,161.6 C-462.5,157.7 -459.7,157.2 -441.4,157.7 C-424.4,158.1 -421.4,158.9 -418.7,163.9 C-417.2,166.7 -417,175.2 -416.5,256 C-416.1,334.2 -415.8,345 -414.5,345 C-413.2,345 -413,334.4 -412.7,256.5 C-412.4,156.7 -412.1,161.8 -419.8,156.7 C-423.8,154 -424.1,154 -442.4,153.7 C-457.5,153.5 -461.7,153.8 -464.5,155.1M163.9,155.4 C159.1,157.6 154.3,163.1 152.6,168.3 C148.3,181.8 132.5,236.5 132.5,237.9 C132.5,239 133.1,239.5 134.2,239.3 C136.1,238.9 135.5,240.6 147.5,200 C152.5,182.9 157.6,167.3 158.8,165.3 C160.1,162.9 162.4,160.7 165.2,159.4 C169.1,157.5 170.9,157.4 186.3,157.7 C204.5,158 206.5,158.6 210.2,164.2 C211.9,166.7 212,173.1 212.5,256 C212.9,334.2 213.2,345 214.5,345 C215.8,345 216,334.5 216.3,257.5 C216.5,194.5 216.2,168.8 215.4,165.8 C214.1,160.9 209.2,155.8 204.4,154.5 C202.6,153.9 193.6,153.5 184.5,153.5 C170.6,153.5 167.4,153.8 163.9,155.4M-27,156 C-51.2,160.5 -72,177.9 -77.9,198.5 C-80.2,206.6 -79.8,279 -77.5,279 C-76.2,279 -75.9,273.8 -75.5,240 C-75,206.1 -74.7,200.4 -73.2,196.5 C-65.1,175.9 -40.2,159.5 -16.8,159.5 C-11.8,159.5 -10.5,159.2 -10.5,158 C-10.5,155.1 -17.7,154.3 -27,156M-560.7,173.4 L-564,176.3 L-564.3,245 L-564.5,313.6 L-561.8,316.4 C-557.9,320.2 -552,321.3 -548.6,318.7 C-543.6,315 -543.5,314.3 -543.5,278.7 L-543.5,245.4 L-541.1,243 C-539.6,241.5 -538,240.8 -537.1,241.1 C-535.3,241.8 -534.6,244.1 -522,287 C-515.3,309.7 -513,316.5 -511,318.5 C-508.6,320.8 -507.7,321 -497.7,321.3 C-487.8,321.6 -486.7,321.5 -483.5,319.3 C-479.6,316.7 -481.3,321.4 -465.9,269.2 C-462.2,256.6 -458.5,245.7 -457.8,244.9 C-455.9,243 -451.9,243.1 -451.1,245.1 C-450.8,246 -450.5,287.7 -450.5,337.9 C-450.5,438.9 -450.9,432.5 -444,434.4 C-440.7,435.3 -435.5,434.5 -432.9,432.7 C-429.5,430.5 -429.5,428.7 -429.5,302.5 L-429.5,177.3 L-432.9,173.9 C-436.3,170.5 -436.4,170.5 -445.5,170.5 C-454.2,170.5 -454.8,170.6 -457.5,173.3 C-460.6,176.5 -460.1,174.8 -477.4,234 C-484,256.5 -490.1,276.4 -490.9,278.1 C-492.6,281.8 -495.1,282.7 -499.2,281 C-502.7,279.5 -501.6,282.9 -520,219.5 C-535.1,167.4 -533.4,170.5 -548,170.5 C-557,170.5 -557.6,170.6 -560.7,173.4M-353.6,172.2 C-355,173.1 -356.7,174.6 -357.3,175.5 C-357.9,176.5 -365.2,202.2 -373.5,232.7 C-381.9,263.1 -390,292.7 -391.6,298.5 C-393.2,304.3 -394.5,310.2 -394.5,311.6 C-394.5,318.5 -380.4,322.9 -375.8,317.4 C-375.2,316.6 -373.5,311.5 -372.1,306.1 C-370.6,300.7 -368.9,295.1 -368.2,293.6 C-365.9,288.8 -363.7,288.4 -343.5,289 C-333.3,289.4 -324.2,289.9 -323.2,290.2 C-320.7,290.9 -318.1,296.6 -315.5,307.2 C-314.3,312.2 -312.8,317.1 -312.1,318 C-309.3,321.9 -295.1,318.8 -293.5,314 C-293,312.8 -295,303.7 -298.6,290.5 C-301.8,278.7 -309.9,248.3 -316.7,223 C-328.1,180.2 -329.1,176.8 -332.1,173.7 C-335.2,170.6 -335.6,170.5 -343.1,170.5 C-348.6,170.5 -351.8,171 -353.6,172.2M-340.1,218.7 C-337.2,223.4 -328.3,258.3 -328.7,263.4 L-329,267 L-342.3,267.3 C-356.5,267.6 -359.5,266.9 -359.5,263.2 C-359.5,260.9 -350.2,226 -348.4,221.4 C-347.5,219.1 -344.6,216.8 -342.3,216.6 C-341.9,216.5 -340.9,217.5 -340.1,218.7M-225.4,171.6 C-232.4,173 -243.9,178.9 -248.5,183.5 C-250.8,185.8 -253.9,190.2 -255.4,193.4 L-258,199 L-258.3,240.8 C-258.7,288 -258.2,294 -253.2,302.4 C-246.2,314.1 -234.5,320.1 -216.5,321.1 C-195.1,322.4 -178.3,314.9 -171.5,301 C-169.1,296.2 -169,295.2 -168.7,270.8 C-168.2,234.7 -167.2,236 -195.6,236 C-217.1,236 -217.4,236.1 -218.2,243.8 C-219.4,253.9 -217.1,256.5 -206.9,256.5 C-202.8,256.5 -197.9,257.1 -196.1,257.9 C-190.1,260.4 -189.5,262.3 -189.5,277.8 L-189.5,291.7 L-192.3,294.5 C-196.2,298.4 -202.3,299.9 -213.5,300 C-221.7,300 -223.7,299.7 -227.9,297.5 C-237.4,292.7 -237,295.3 -237.3,247 C-237.7,197.2 -238,199.4 -228.4,194.6 C-222.9,191.8 -221.2,191.5 -213.6,191.5 C-207.4,191.5 -203.9,192.1 -201,193.4 C-195.8,195.7 -190.8,200 -189.9,202.8 C-188.1,208.8 -181.2,210.4 -174.5,206.4 C-168.3,202.6 -168,200 -172.7,191.3 C-177.6,182 -187,175.2 -199,172 C-205.4,170.4 -218.2,170.2 -225.4,171.6M-25.2,171.6 C-35.8,173.4 -43.5,177.3 -51.1,184.9 C-62.7,196.5 -62.4,195.1 -62.5,245.7 C-62.6,291.4 -62.4,292.9 -57.1,301.3 C-52.9,307.9 -47.6,312.7 -40.5,316.1 C-32.5,320 -25.7,321.5 -15.6,321.5 C-2,321.5 8.2,317.1 17,307.3 C22.4,301.3 22.8,298.1 18.8,294.3 C11.8,287.9 7.9,287.9 1,294.4 C-5.1,300.1 -7.9,301 -19.5,300.3 C-26,299.9 -28.2,299.3 -32.1,296.9 C-38,293.3 -40.5,289.9 -41.6,284.4 C-42.8,277.8 -42.7,211.8 -41.4,207 C-40,201.8 -35.5,197.2 -29.1,194.3 C-25.1,192.5 -22.2,192 -15.5,192 C-5.6,192 -2.9,193.2 2.3,200 C7.4,206.6 12.3,206.9 19.3,201 C21.8,198.9 22.5,197.5 22.5,194.8 C22.5,191.8 21.5,190.3 15.3,184.1 C7.2,176.1 1.7,173.1 -7.7,171.5 C-14.9,170.4 -17.9,170.4 -25.2,171.6M69.6,171.9 C64.5,174.7 64.6,173.1 64.5,246.2 L64.5,314.3 L67.4,316.8 C71.4,320.2 76.9,321.1 80.2,319 C85.2,315.7 85.5,313.2 85.5,277.6 L85.5,244.6 L88.1,242.6 C91.1,240.2 92.6,240.9 94.3,245.3 C94.9,246.8 99.7,262.8 105,281 C110.2,299.1 115.4,315.1 116.4,316.5 C119.3,320.5 122.3,321.5 132.5,321.5 C143.3,321.5 147.3,319.9 149.3,314.9 C149.9,313.3 154.7,297.2 160,279.1 C165.3,260.9 170.1,245.5 170.7,244.8 C172,243.2 175.7,243.1 177.3,244.7 C178.2,245.6 178.5,267.7 178.5,338 C178.5,426.6 178.6,430.3 180.4,431.9 C185.1,436.2 193.7,435.6 197.5,430.8 C199.5,428.2 199.5,427.6 199.5,303.6 C199.5,180.8 199.5,179 197.5,175.7 C194.9,171.5 192.1,170.5 182.5,170.5 C169.3,170.5 170.9,167.3 153.9,225.5 C145.9,252.7 139,276 138.5,277.2 C135.9,283.4 128.6,283.4 126,277.2 C125.3,275.4 118.2,251.9 110.4,225 C98.3,183.7 95.6,175.6 93.4,173.2 C90.8,170.6 90.2,170.5 81.3,170.5 C75.5,170.6 71.1,171.1 69.6,171.9M274.9,172.3 C273.2,173.4 271.3,175.6 270.7,177.1 C269.8,179.4 253,240.2 236.6,301 C235,306.7 234.1,312.1 234.5,313.5 C235.7,318.5 248.4,322 252.1,318.3 C253,317.5 255,312.1 256.6,306.4 C258.2,300.7 260,294.8 260.6,293.3 C262.4,288.9 265.9,288.3 286.8,289.1 L305.6,289.8 L307.9,292.6 C309.4,294.3 311.2,299.3 313,306.4 C314.5,312.5 316.4,318 317.1,318.6 C321,321.9 334,318.4 335.1,313.8 C335.5,312.3 334.1,305.2 331.5,295.7 C329.2,287.1 321,256.6 313.4,228 C301.7,184.5 299,175.6 297,173.5 C294.8,171.3 293.5,171 286.2,170.7 C279.5,170.5 277.4,170.7 274.9,172.3M287.8,217.7 C289.4,218.9 296.8,243.7 299.7,257.7 C301.6,266.7 301.3,266.9 286.1,267.3 C272,267.6 269.5,266.9 269.5,262.7 C269.5,261.2 272,251 275,240 C279,225.1 281,219.6 282.6,218.2 C285.1,216.2 285.6,216.1 287.8,217.7M377,172.6 C371.9,175.2 372,173.3 371.7,244 C371.5,290.5 371.7,311.1 372.5,313.8 C373.2,316.3 374.7,318.3 376.8,319.5 C379.8,321.4 382,321.5 409.2,321.5 C441.6,321.5 440.6,321.7 442.5,314.6 C443.8,309.5 442.8,304.9 439.7,302.5 C437.5,300.7 435.6,300.5 419.6,300.5 C400.1,300.5 398.3,300 395.1,294.5 C393.1,291.1 393,289.2 392.5,233.3 C392,181 391.8,175.4 390.3,173.9 C388.3,171.9 379.9,171.1 377,172.6M494.5,172.7 C489.5,175.4 489.5,174.3 489.5,246.9 L489.5,314.7 L492.9,318.1 L496.3,321.5 L526.2,321.5 C561,321.5 559.6,321.9 560.3,311.7 C560.6,307.1 560.3,305.5 558.7,303.5 C556.7,301 556.5,301 537.2,300.5 C519.5,300 517.5,299.8 515.5,298 C511,293.9 511,294.6 510.5,234.3 C510,177 510,176.5 507.9,174.4 C505.2,171.8 498,170.9 494.5,172.7M-122.7,175.1 C-124.2,175.9 -125.7,177.6 -126,178.8 C-126.3,180 -126.7,210.8 -126.8,247.2 L-127,313.4 L-124.8,315.6 C-121.5,318.9 -112.9,319.4 -109.2,316.5 L-106.5,314.4 L-106.5,177.6 L-109.1,175.6 C-112.3,173.1 -118.7,172.9 -122.7,175.1M-271.8,197.1 C-272.2,197.5 -272.5,219.1 -272.5,245 C-272.5,285.4 -272.3,292.9 -270.9,297.6 C-268.4,305.9 -264.8,312.3 -259.3,318.1 C-248.6,329.4 -236.2,334.6 -219.5,334.9 C-210.3,335 -209,334.8 -208.7,333.2 C-208.4,331.7 -209.2,331.5 -215.7,331.5 C-239.4,331.4 -258.3,319.4 -266.2,299.5 C-267.8,295.5 -268,289.7 -268.5,246.1 C-269,199.2 -269.3,194.6 -271.8,197.1M-256.7,457.7 C-266.9,459 -272.3,463.3 -277.5,474 C-279.8,478.7 -280.2,547.1 -278,555.8 C-274.5,569.6 -267.7,575.5 -255.3,575.5 C-247.6,575.5 -244,574.1 -238.6,569.1 C-236.8,567.4 -235.1,566.4 -234.9,567 C-234.7,567.5 -233.7,569.6 -232.7,571.5 C-231.2,574.6 -230.6,575 -227,575 L-223,575 L-223,507 L-250,507 L-250.3,517.2 L-250.6,527.5 L-244.3,527.5 L-244.7,539.6 C-245,550.3 -245.2,551.8 -247,553.1 C-249.9,555.2 -253.7,554.5 -255.2,551.5 C-256.1,549.6 -256.5,540.5 -256.5,515.7 C-256.5,483.8 -256.4,482.4 -254.5,480.5 C-252.1,478.1 -248.2,477.9 -246.4,480.1 C-245.6,481 -244.8,485.3 -244.5,489.9 L-244,498 L-233.6,498.3 C-227.9,498.4 -222.8,498.2 -222.3,497.7 C-221.2,496.6 -223.1,479 -225,473.4 C-227,467.7 -231.4,462.2 -235.9,460.1 C-240.6,457.9 -249.9,456.8 -256.7,457.7M35,459.3 C26.6,463.3 22.1,470.1 20.6,481.2 C18.6,495.9 21.6,502.4 38.2,519.6 C45,526.7 51.2,534 52,535.9 C52.8,537.9 53.5,542.4 53.5,545.9 C53.5,551.5 53.2,552.6 51.4,553.5 C45.5,556.7 42.7,552.1 42.6,539.2 L42.5,531.4 L31.3,531.7 L20,532 L20.2,541.9 C20.5,559.4 24.2,568.2 33.1,572.6 C37.4,574.7 39.4,575 49.5,575 C60.3,575 61.3,574.8 65.1,572.3 C72.6,567.5 76.5,557.4 76.7,542.8 C76.8,526.3 72.5,517.9 55.7,502.7 C50.7,498.1 45.7,492.9 44.5,491.1 C41.9,486.8 41.8,480.9 44.4,479.5 C49.4,476.9 52.5,479.6 52.5,486.6 L52.5,491.5 L76.8,491.5 L76.1,485.5 C74.6,472.4 70.6,464.7 63,460.4 C57.3,457.1 40.9,456.5 35,459.3M84.7,516.2 L85,575 L108,575 L108.5,535.9 C109,499.2 109.1,496.6 110.9,494.6 Q114.5,490.55 118.1,494.6 C119.9,496.6 120,499.2 120.5,535.9 L121,575 L143,575 L143.3,533.6 C143.4,506.7 143.2,490.9 142.5,488.3 C140.3,480.3 132.5,474.5 124,474.5 C119.6,474.6 112.7,478 111.4,480.9 C109.8,484.3 108.3,483.1 108.5,478.6 C108.6,476.6 108.7,471.1 108.6,466.2 L108.5,457.5 L84.5,457.5 L84.7,516.2 L84.7,516.2 L84.7,516.2 ZM-195.2,475.5 C-207.2,478 -213.5,486.4 -213.5,499.7 L-213.5,504.5 L-190.5,504.5 L-190.5,500.1 C-190.5,495.1 -188.4,492.2 -185.2,492.7 C-182,493.2 -180.5,497.2 -180.7,504.4 L-181,510.7 L-191.8,514.5 C-197.7,516.6 -204.2,519.5 -206.1,521 C-213.4,526.6 -216.9,540.6 -214.6,555.5 C-212.4,569.9 -207.4,575.4 -196.1,575.7 C-189.8,575.9 -186.6,574.2 -182.8,568.6 L-180.6,565.4 L-180.3,570.2 L-180,575 L-157,575 L-156.7,536.5 C-156.6,512.2 -156.9,496.1 -157.5,492.9 C-158.9,486.5 -163.7,480.6 -170.2,477.5 C-175.6,475 -188,474 -195.2,475.5M-180.7,538.5 C-180.9,551.7 -181.3,554.7 -182.7,556.1 C-185.1,558.5 -189.3,557.2 -190.2,553.7 C-191.5,549.2 -191.1,533.3 -189.6,529.8 C-188.4,526.9 -183.4,522.6 -181.2,522.5 C-180.7,522.5 -180.5,529.7 -180.7,538.5M-115.3,475.6 C-117.3,476.2 -119.7,478.1 -121.5,480.7 L-124.5,484.8 L-124.5,475.5 L-147.5,475.5 L-147.3,525.2 L-147,575 L-125,575 L-124.5,536.5 C-124.2,515.3 -123.6,497.2 -123.1,496.2 C-122.3,494.5 -119.4,492.5 -117.8,492.5 C-114.1,492.6 -114,493.2 -113.5,534.7 L-113,575 L-90,575 L-89.5,535.9 C-89,499.2 -88.9,496.6 -87.1,494.6 C-85,492.3 -81.1,491.8 -79.8,493.7 C-79.4,494.4 -78.8,513 -78.5,535 L-78,575 L-55,575 L-54.2,544 C-53.8,526.9 -53.7,508.1 -54.1,502.1 C-55.1,482.6 -59.5,475.9 -72.3,474.8 C-79.8,474.1 -84.6,475.7 -88.5,480.1 L-91.5,483.6 L-94.5,480.2 C-98.9,475.2 -107.3,473.3 -115.3,475.6M-24.8,475.6 C-33.7,477.7 -41,483.7 -43.6,491.2 C-44.7,494.1 -45,502.2 -45,524.5 C-45,553 -44.9,554.2 -42.7,559.8 C-38,571.5 -31.3,575.6 -17,575.6 C-2.1,575.6 4.2,572.6 8.9,563.2 C11.9,557.3 14.5,541.6 13.2,538.1 C12.7,536.8 10.8,536.5 1,536.5 L-10.5,536.5 L-10.5,545.3 C-10.5,555.1 -12,558 -16.6,557.3 C-20.5,556.8 -21.5,553.1 -21.5,539.8 L-21.5,527.5 L-4.2,527.3 L13,527 L12.9,510.5 C12.9,495.4 12.7,493.6 10.5,488.6 C5.6,477.5 -9.4,472 -24.8,475.6M-12.1,494.7 C-10.9,496.3 -10.5,499.4 -10.5,506.2 L-10.5,515.5 L-21.7,515.5 L-21.3,505.7 C-21,495 -19.9,492.5 -15.9,492.5 C-14.7,492.5 -12.9,493.5 -12.1,494.7M172.3,475.9 C169.7,476.6 166.8,477.8 165.8,478.5 C160.9,482.2 158.1,485.4 155.7,490 L153,495 L152.7,522.2 C152.5,539.7 152.8,551.4 153.5,554.9 C155.9,566.7 163.9,574 175.7,575.3 C191.8,577.1 203.3,572.6 208.5,562.4 C211.2,557.2 212.5,544.7 212.5,525 C212.4,503.5 211.3,494.8 207.8,488.4 C201.7,477.1 187,471.9 172.3,475.9M185.5,494.5 C187.4,496.4 187.5,497.8 187.5,525.4 C187.5,557.1 187.3,558 181.6,557.3 C176.9,556.8 176.5,554.3 176.5,524.9 C176.5,499 176.6,497.7 178.6,495.1 C181.1,492 182.8,491.8 185.5,494.5M252.1,476 C250,476.7 247.8,477.8 247.2,478.4 C245.5,480.1 244.5,479.7 244.5,477.5 C244.5,475.5 244,475.4 232.8,475.7 L221,476 L220.7,535.2 L220.5,594.5 L244.5,594.5 L244.7,584.7 C244.7,579.4 244.9,574.5 245,574 C245.2,573.4 245.3,572.7 245.4,572.3 C245.4,571.9 247,572.4 248.8,573.5 C253.6,576.5 265,576.3 269.6,573.2 C274.1,570.2 277.1,565.5 278.4,559.4 C279.1,556.5 279.5,542.2 279.5,525 C279.5,494.1 278.9,487.9 275.2,482.3 C270.7,475.6 260.8,472.9 252.1,476M254.5,495.4 C255.1,496.6 255.5,507.9 255.5,525.2 C255.5,548.8 255.3,553.4 253.9,555.3 C252,558.1 249.4,558.1 246.9,555.4 C245.1,553.4 245,551.4 245,525.6 C245,495.2 245.3,493.5 250.5,493.5 C252.4,493.5 253.8,494.2 254.5,495.4" style="fill:#C3A7FF;" />
		<path transform="matrix(1.410731315612793, 0, 0, 1.410731315612793, -7.909210205078125, -10.57526683807373)" d="M-299.8,-490.8 C-300.7,-490 -300.7,-205.5 -299.9,-205.5 C-298.8,-205.5 -294.2,-209.1 -198,-286 C-52.1,-402.5 -38.4,-413.6 -38.7,-414.4 C-38.9,-414.8 -60.4,-432.3 -86.6,-453.3 L-134.2,-491.5 L-216.7,-491.5 C-262.1,-491.5 -299.5,-491.2 -299.8,-490.8M114,-468.4 C98.1,-455.6 52.2,-419.1 12.1,-387.1 C-117.9,-283.4 -144.2,-262.5 -197,-220.4 C-225.6,-197.6 -260.2,-170 -274,-159 C-287.7,-148.1 -299.3,-138.7 -299.7,-138.1 C-300.1,-137.5 -300.5,-91.9 -300.5,-36.8 L-300.5,63.5 L-273.4,63.5 L-203.9,8 L-134.5,-47.5 L-134.5,-158 C-134.5,-218.8 -134.1,-268.5 -133.7,-268.5 C-133.3,-268.5 -125.7,-262.8 -117,-255.7 C-108.2,-248.7 -77.2,-223.9 -48.2,-200.7 L4.6,-158.4 L156.4,-279.9 C240,-346.7 308.5,-401.9 308.6,-402.4 C308.8,-403 308.9,-423.3 308.7,-447.5 L308.5,-491.5 L143,-491.5 L114,-468.4 L114,-468.4 L114,-468.4 ZM234.5,-276.4 C194.1,-244.1 156.8,-214.2 151.8,-210 L142.5,-202.5 L142.5,-128.2 C142.5,-87.4 142.8,-52.4 143.1,-50.5 C143.7,-47.3 147.4,-44.1 185.2,-14 C208,4.1 239.2,29 254.5,41.3 L282.3,63.6 L295.4,63.3 L308.6,63 L308.5,-135.9 C308.5,-245.4 308.4,-334.9 308.2,-335 C308.1,-335.1 274.9,-308.7 234.5,-276.4" style="fill:#C3A7FF;" />
	</g>
</svg>